<svg t="1619493256207" class="icon" viewBox="0 0 1024 1024" version="1.1" xmlns="http://www.w3.org/2000/svg" p-id="2322"><path d="M290.016 236.416l43.904-43.904a8 8 0 0 0-4.704-13.6L169.024 160a8 8 0 0 0-8.896 8.896l18.912 160.192a8 8 0 0 0 13.6 4.704l43.712-43.712 133.696 133.6a8 8 0 0 0 11.296 0l42.4-42.304a8 8 0 0 0 0-11.296L290.048 236.384z m352.672 187.296a8 8 0 0 0 11.296 0l133.696-133.6 43.712 43.712a8 8 0 0 0 13.6-4.704l18.912-160.096a8 8 0 0 0-8.896-8.896l-160.192 18.912a8 8 0 0 0-4.704 13.6l43.904 43.904-133.696 133.504a8 8 0 0 0 0 11.296l42.4 42.4z m202.304 271.2a8 8 0 0 0-13.6-4.704l-43.712 43.712-133.696-133.6a8 8 0 0 0-11.296 0l-42.4 42.304a8 8 0 0 0 0 11.296l133.696 133.696-43.904 43.904a8 8 0 0 0 4.704 13.6l160.192 18.912a8 8 0 0 0 8.896-8.896l-18.912-160.192z m-463.68-94.624a8 8 0 0 0-11.296 0l-133.696 133.6-43.712-43.712a8 8 0 0 0-13.6 4.704l-18.912 160.096a8 8 0 0 0 8.896 8.896l160.192-18.912a8 8 0 0 0 4.704-13.6l-43.904-43.808 133.696-133.6a8 8 0 0 0 0-11.296l-42.4-42.4z" p-id="2323"></path></svg>